<svg xmlns="http://www.w3.org/2000/svg" height="48" viewBox="0 -960 960 960" width="48"><path d="M216.222-140.478q-31.86 0-53.802-21.942t-21.942-53.802q0-31.861 21.942-53.819Q184.362-292 216.222-292q31.861 0 53.819 21.959Q292-248.083 292-216.222q0 31.86-21.959 53.802-21.958 21.942-53.819 21.942Zm263.869 0q-31.613 0-53.732-21.942-22.12-21.942-22.12-53.802 0-31.861 22.029-53.819Q448.296-292 479.909-292t53.732 21.959q22.12 21.958 22.12 53.819 0 31.86-22.029 53.802-22.028 21.942-53.641 21.942Zm263.687 0q-31.861 0-53.819-21.942Q668-184.362 668-216.222q0-31.861 21.959-53.819Q711.917-292 743.778-292q31.86 0 53.802 21.959 21.942 21.958 21.942 53.819 0 31.86-21.942 53.802t-53.802 21.942ZM216.222-404.239q-31.86 0-53.802-22.029-21.942-22.028-21.942-53.641t21.942-53.732q21.942-22.12 53.802-22.12 31.861 0 53.819 22.029Q292-511.704 292-480.091t-21.959 53.732q-21.958 22.12-53.819 22.12Zm263.869 0q-31.613 0-53.732-22.029-22.12-22.028-22.12-53.641t22.029-53.732q22.028-22.12 53.641-22.12t53.732 22.029q22.12 22.028 22.12 53.641t-22.029 53.732q-22.028 22.12-53.641 22.12Zm263.687 0q-31.861 0-53.819-22.029Q668-448.296 668-479.909t21.959-53.732q21.958-22.12 53.819-22.12 31.86 0 53.802 22.029 21.942 22.028 21.942 53.641t-21.942 53.732q-21.942 22.12-53.802 22.12ZM216.222-668q-31.86 0-53.802-21.959-21.942-21.958-21.942-53.819 0-31.86 21.942-53.802t53.802-21.942q31.861 0 53.819 21.942Q292-775.638 292-743.778q0 31.861-21.959 53.819Q248.083-668 216.222-668Zm263.869 0q-31.613 0-53.732-21.959-22.12-21.958-22.12-53.819 0-31.86 22.029-53.802 22.028-21.942 53.641-21.942t53.732 21.942q22.12 21.942 22.12 53.802 0 31.861-22.029 53.819Q511.704-668 480.091-668Zm263.687 0q-31.861 0-53.819-21.959Q668-711.917 668-743.778q0-31.86 21.959-53.802 21.958-21.942 53.819-21.942 31.86 0 53.802 21.942t21.942 53.802q0 31.861-21.942 53.819Q775.638-668 743.778-668Z"/></svg>