<svg xmlns="http://www.w3.org/2000/svg" height="48" viewBox="0 -960 960 960" width="48"><path d="M479.522-142.043q-140.718 0-239.076-98.74-98.359-98.739-98.359-238.397 0-139.659 98.359-239.337 98.358-99.679 239.455-99.679 84.886 0 151.022 34.912 66.135 34.912 116.186 94.958v-129.87h72.043v281.957H536.957v-71.804H711.13q-40-59.522-97.119-95.044-57.118-35.522-134.489-35.522-109.375 0-184.753 75.103-75.378 75.103-75.378 184.107 0 109.805 75.372 184.928 75.371 75.123 184.818 75.123 81.52 0 150.176-46.782 68.656-46.783 96.895-125.348h79.544Q775.957-280 685.037-211.022q-90.92 68.979-205.515 68.979Z"/></svg>